<?xml version="1.0" encoding="utf-8"?>
<!-- Generator: Adobe Illustrator 19.0.0, SVG Export Plug-In . SVG Version: 6.00 Build 0)  -->
<svg version="1.1" id="Layer_1" xmlns="http://www.w3.org/2000/svg" xmlns:xlink="http://www.w3.org/1999/xlink" x="0px" y="0px"
	 viewBox="0 0 237 57.3" style="enable-background:new 0 0 237 57.3;" xml:space="preserve">
<style type="text/css">
	.st0{fill:#FFFFFF;}
	.st1{opacity:0.5;}
	.st2{fill:url(#XMLID_28_);}
	.st3{fill:url(#XMLID_29_);}
	.st4{fill:url(#XMLID_30_);}
	.st5{fill:url(#XMLID_31_);}
	.st6{fill:url(#XMLID_32_);}
	.st7{fill:url(#XMLID_33_);}
	.st8{fill:url(#XMLID_34_);}
	.st9{fill:url(#XMLID_35_);}
	.st10{fill:url(#XMLID_36_);}
	.st11{fill:url(#XMLID_37_);}
	.st12{fill:url(#XMLID_38_);}
	.st13{fill:url(#XMLID_39_);}
	.st14{fill:url(#XMLID_40_);}
	.st15{fill:url(#XMLID_41_);}
	.st16{fill:url(#XMLID_42_);}
	.st17{fill:url(#XMLID_43_);}
	.st18{fill:url(#XMLID_44_);}
	.st19{fill:url(#XMLID_45_);}
	.st20{fill:url(#XMLID_46_);}
	.st21{fill:url(#XMLID_47_);}
	.st22{fill:url(#XMLID_48_);}
	.st23{fill:url(#XMLID_49_);}
	.st24{fill:url(#XMLID_50_);}
	.st25{fill:url(#XMLID_51_);}
	.st26{fill:url(#XMLID_52_);}
	.st27{fill:url(#XMLID_53_);}
	.st28{fill:url(#XMLID_54_);}
	.st29{fill:url(#XMLID_55_);}
	.st30{fill:url(#XMLID_56_);}
	.st31{fill:url(#XMLID_57_);}
	.st32{fill:url(#XMLID_58_);}
	.st33{fill:url(#XMLID_59_);}
	.st34{fill:url(#XMLID_60_);}
	.st35{fill:url(#XMLID_61_);}
	.st36{fill:url(#XMLID_62_);}
	.st37{fill:url(#XMLID_63_);}
	.st38{fill:url(#XMLID_64_);}
	.st39{fill:url(#XMLID_65_);}
	.st40{fill:#00B3D8;}
	.st41{fill:#79B0DF;}
	.st42{opacity:0.4;}
	.st43{fill:url(#XMLID_66_);}
	.st44{fill:url(#XMLID_67_);}
	.st45{fill:#003462;}
</style>
<g id="XMLID_3108_">
	<g id="XMLID_7091_">
		<path id="XMLID_7256_" class="st0" d="M58.9,6.2c-9-3.9-18.9-6.1-29.4-6.1S9.1,2.3,0.1,6.2C1.2,16,4.3,25.7,9.5,34.7
			s12.1,16.6,20,22.4c7.9-5.8,14.8-13.3,20-22.4S57.8,16,58.9,6.2z"/>
		<g id="XMLID_7217_" class="st1">
			<linearGradient id="XMLID_28_" gradientUnits="userSpaceOnUse" x1="29.5445" y1="57.1195" x2="29.5483" y2="57.1195">
				<stop  offset="0" style="stop-color:#6ACFF6"/>
				<stop  offset="0.232" style="stop-color:#77D2F7"/>
				<stop  offset="0.6164" style="stop-color:#95DAF8"/>
				<stop  offset="1" style="stop-color:#B9E5FB"/>
			</linearGradient>
			<polygon id="XMLID_7255_" class="st2" points="29.5,57.1 29.5,57.1 29.5,57.1 			"/>
			<linearGradient id="XMLID_29_" gradientUnits="userSpaceOnUse" x1="55.4505" y1="11.3436" x2="58.8997" y2="11.3436">
				<stop  offset="0" style="stop-color:#6ACFF6"/>
				<stop  offset="0.232" style="stop-color:#77D2F7"/>
				<stop  offset="0.6164" style="stop-color:#95DAF8"/>
				<stop  offset="1" style="stop-color:#B9E5FB"/>
			</linearGradient>
			<path id="XMLID_7254_" class="st3" d="M57,16.4c0.9-3.3,1.5-6.7,1.9-10.1c-1,3.1-2.1,6.1-3.4,9.1C56,15.7,56.5,16,57,16.4z"/>
			<linearGradient id="XMLID_30_" gradientUnits="userSpaceOnUse" x1="53.9232" y1="10.7921" x2="58.9087" y2="10.7921">
				<stop  offset="0" style="stop-color:#6ACFF6"/>
				<stop  offset="0.232" style="stop-color:#77D2F7"/>
				<stop  offset="0.6164" style="stop-color:#95DAF8"/>
				<stop  offset="1" style="stop-color:#B9E5FB"/>
			</linearGradient>
			<path id="XMLID_7253_" class="st4" d="M58.9,6.2c-1.5,2.8-3.1,5.6-5,8.2c0.5,0.3,1,0.6,1.5,0.9C56.8,12.4,57.9,9.4,58.9,6.2
				C58.9,6.3,58.9,6.3,58.9,6.2C58.9,6.2,58.9,6.2,58.9,6.2z"/>
			<linearGradient id="XMLID_31_" gradientUnits="userSpaceOnUse" x1="52.4469" y1="10.3276" x2="58.8802" y2="10.3276">
				<stop  offset="0" style="stop-color:#6ACFF6"/>
				<stop  offset="0.232" style="stop-color:#77D2F7"/>
				<stop  offset="0.6164" style="stop-color:#95DAF8"/>
				<stop  offset="1" style="stop-color:#B9E5FB"/>
			</linearGradient>
			<path id="XMLID_7252_" class="st5" d="M53.9,14.4c1.8-2.6,3.5-5.4,5-8.2c0,0,0,0,0,0c-2,2.6-4.1,5.1-6.4,7.4
				C52.9,13.9,53.4,14.2,53.9,14.4z"/>
			<linearGradient id="XMLID_32_" gradientUnits="userSpaceOnUse" x1="0.1698" y1="4.4987" x2="9.8405" y2="4.4987">
				<stop  offset="0" style="stop-color:#6ACFF6"/>
				<stop  offset="0.232" style="stop-color:#77D2F7"/>
				<stop  offset="0.6164" style="stop-color:#95DAF8"/>
				<stop  offset="1" style="stop-color:#B9E5FB"/>
			</linearGradient>
			<path id="XMLID_7251_" class="st6" d="M9.8,2.8C6.5,3.7,3.3,4.9,0.2,6.2C3.3,5.5,6.5,5,9.8,4.7C9.8,4,9.8,3.4,9.8,2.8z"/>
			<linearGradient id="XMLID_33_" gradientUnits="userSpaceOnUse" x1="9.7549" y1="2.7097" x2="19.7885" y2="2.7097">
				<stop  offset="0" style="stop-color:#6ACFF6"/>
				<stop  offset="0.232" style="stop-color:#77D2F7"/>
				<stop  offset="0.6164" style="stop-color:#95DAF8"/>
				<stop  offset="1" style="stop-color:#B9E5FB"/>
			</linearGradient>
			<path id="XMLID_7250_" class="st7" d="M19,4.4c0.2-1.2,0.5-2.4,0.7-3.6c-3.4,0.4-6.7,1.1-9.9,2c0,0.6-0.1,1.3-0.1,1.9
				C12.8,4.4,15.9,4.3,19,4.4z"/>
			<linearGradient id="XMLID_34_" gradientUnits="userSpaceOnUse" x1="19.0427" y1="2.6289" x2="29.541" y2="2.6289">
				<stop  offset="0" style="stop-color:#6ACFF6"/>
				<stop  offset="0.232" style="stop-color:#77D2F7"/>
				<stop  offset="0.6164" style="stop-color:#95DAF8"/>
				<stop  offset="1" style="stop-color:#B9E5FB"/>
			</linearGradient>
			<path id="XMLID_7249_" class="st8" d="M27.6,5.1c0.6-1.7,1.2-3.4,1.9-5c0,0,0,0,0,0c-3.3,0-6.5,0.2-9.7,0.6
				C19.5,2,19.3,3.2,19,4.4C21.9,4.5,24.8,4.7,27.6,5.1z"/>
			<linearGradient id="XMLID_35_" gradientUnits="userSpaceOnUse" x1="27.6408" y1="6.8559" x2="58.8697" y2="6.8559">
				<stop  offset="0" style="stop-color:#6ACFF6"/>
				<stop  offset="0.232" style="stop-color:#77D2F7"/>
				<stop  offset="0.6164" style="stop-color:#95DAF8"/>
				<stop  offset="1" style="stop-color:#B9E5FB"/>
			</linearGradient>
			<path id="XMLID_7248_" class="st9" d="M58.9,6.2c-9-3.9-18.9-6.1-29.3-6.1c-0.7,1.6-1.3,3.3-1.9,5c8.6,1.3,17,4.1,24.8,8.5
				C54.8,11.3,56.9,8.8,58.9,6.2z"/>
			<linearGradient id="XMLID_36_" gradientUnits="userSpaceOnUse" x1="51.0558" y1="20.6879" x2="57.0356" y2="20.6879">
				<stop  offset="0" style="stop-color:#6ACFF6"/>
				<stop  offset="0.232" style="stop-color:#77D2F7"/>
				<stop  offset="0.6164" style="stop-color:#95DAF8"/>
				<stop  offset="1" style="stop-color:#B9E5FB"/>
			</linearGradient>
			<path id="XMLID_7247_" class="st10" d="M51.1,23.6c0.9,0.8,1.9,1.6,2.8,2.5c1.3-3.2,2.4-6.4,3.2-9.6c-0.5-0.3-1.1-0.7-1.6-1
				C54.2,18.2,52.7,20.9,51.1,23.6z"/>
			<linearGradient id="XMLID_37_" gradientUnits="userSpaceOnUse" x1="48.4067" y1="18.9978" x2="55.4505" y2="18.9978">
				<stop  offset="0" style="stop-color:#6ACFF6"/>
				<stop  offset="0.232" style="stop-color:#77D2F7"/>
				<stop  offset="0.6164" style="stop-color:#95DAF8"/>
				<stop  offset="1" style="stop-color:#B9E5FB"/>
			</linearGradient>
			<path id="XMLID_7246_" class="st11" d="M51.1,23.6c1.6-2.6,3.1-5.4,4.4-8.2c-0.5-0.3-1-0.6-1.5-0.9c-1.7,2.4-3.5,4.7-5.5,7
				C49.3,22.1,50.2,22.8,51.1,23.6z"/>
			<linearGradient id="XMLID_38_" gradientUnits="userSpaceOnUse" x1="45.7979" y1="17.5054" x2="53.9232" y2="17.5054">
				<stop  offset="0" style="stop-color:#6ACFF6"/>
				<stop  offset="0.232" style="stop-color:#77D2F7"/>
				<stop  offset="0.6164" style="stop-color:#95DAF8"/>
				<stop  offset="1" style="stop-color:#B9E5FB"/>
			</linearGradient>
			<path id="XMLID_7245_" class="st12" d="M45.8,19.5c0.9,0.6,1.8,1.3,2.6,1.9c2-2.2,3.8-4.6,5.5-7c-0.5-0.3-1-0.6-1.5-0.8
				C50.4,15.7,48.2,17.7,45.8,19.5z"/>
			<linearGradient id="XMLID_39_" gradientUnits="userSpaceOnUse" x1="0.1292" y1="5.5509" x2="9.7549" y2="5.5509">
				<stop  offset="0" style="stop-color:#6ACFF6"/>
				<stop  offset="0.232" style="stop-color:#77D2F7"/>
				<stop  offset="0.6164" style="stop-color:#95DAF8"/>
				<stop  offset="1" style="stop-color:#B9E5FB"/>
			</linearGradient>
			<path id="XMLID_7244_" class="st13" d="M0.1,6.3c3.2-0.2,6.4-0.1,9.6,0.2c0-0.6,0-1.2,0-1.8C6.5,5,3.3,5.5,0.1,6.3
				C0.2,6.2,0.1,6.2,0.1,6.3C0.1,6.2,0.1,6.3,0.1,6.3z"/>
			<linearGradient id="XMLID_40_" gradientUnits="userSpaceOnUse" x1="9.7186" y1="6.0275" x2="19.0427" y2="6.0275">
				<stop  offset="0" style="stop-color:#6ACFF6"/>
				<stop  offset="0.232" style="stop-color:#77D2F7"/>
				<stop  offset="0.6164" style="stop-color:#95DAF8"/>
				<stop  offset="1" style="stop-color:#B9E5FB"/>
			</linearGradient>
			<path id="XMLID_7243_" class="st14" d="M19,4.4c-3.1-0.1-6.2,0-9.3,0.3c0,0.6,0,1.2,0,1.8c2.9,0.2,5.9,0.7,8.8,1.3
				C18.7,6.6,18.8,5.5,19,4.4z"/>
			<linearGradient id="XMLID_41_" gradientUnits="userSpaceOnUse" x1="18.5172" y1="7.0728" x2="27.6408" y2="7.0728">
				<stop  offset="0" style="stop-color:#6ACFF6"/>
				<stop  offset="0.232" style="stop-color:#77D2F7"/>
				<stop  offset="0.6164" style="stop-color:#95DAF8"/>
				<stop  offset="1" style="stop-color:#B9E5FB"/>
			</linearGradient>
			<path id="XMLID_7242_" class="st15" d="M25.8,9.6c0.1,0,0.3,0.1,0.4,0.1c0.4-1.6,0.9-3.1,1.4-4.6c-2.9-0.4-5.7-0.7-8.6-0.8
				c-0.2,1.1-0.4,2.2-0.5,3.4C21,8.2,23.4,8.9,25.8,9.6z"/>
			<linearGradient id="XMLID_42_" gradientUnits="userSpaceOnUse" x1="26.2493" y1="12.3204" x2="52.4469" y2="12.3204">
				<stop  offset="0" style="stop-color:#6ACFF6"/>
				<stop  offset="0.232" style="stop-color:#77D2F7"/>
				<stop  offset="0.6164" style="stop-color:#95DAF8"/>
				<stop  offset="1" style="stop-color:#B9E5FB"/>
			</linearGradient>
			<path id="XMLID_7241_" class="st16" d="M45.8,19.5c2.4-1.8,4.6-3.8,6.6-5.9c-7.8-4.4-16.2-7.2-24.8-8.5c-0.5,1.5-1,3.1-1.4,4.6
				C33.4,12.1,39.9,15.4,45.8,19.5z"/>
			<linearGradient id="XMLID_43_" gradientUnits="userSpaceOnUse" x1="46.2216" y1="29.1664" x2="53.9529" y2="29.1664">
				<stop  offset="0" style="stop-color:#6ACFF6"/>
				<stop  offset="0.232" style="stop-color:#77D2F7"/>
				<stop  offset="0.6164" style="stop-color:#95DAF8"/>
				<stop  offset="1" style="stop-color:#B9E5FB"/>
			</linearGradient>
			<path id="XMLID_7240_" class="st17" d="M46.2,30.6c1.2,1.4,2.3,2.7,3.4,4.2c0,0,0,0,0,0c1.6-2.9,3.1-5.8,4.3-8.7
				c-0.9-0.8-1.8-1.7-2.8-2.5C49.7,26,48,28.4,46.2,30.6z"/>
			<linearGradient id="XMLID_44_" gradientUnits="userSpaceOnUse" x1="42.7567" y1="26.0146" x2="51.0558" y2="26.0146">
				<stop  offset="0" style="stop-color:#6ACFF6"/>
				<stop  offset="0.232" style="stop-color:#77D2F7"/>
				<stop  offset="0.6164" style="stop-color:#95DAF8"/>
				<stop  offset="1" style="stop-color:#B9E5FB"/>
			</linearGradient>
			<path id="XMLID_7239_" class="st18" d="M43.1,26.8c-0.1,0.1-0.2,0.2-0.4,0.3c1.2,1.1,2.3,2.3,3.3,3.5c1.8-2.3,3.5-4.6,5-7.1
				c-0.9-0.7-1.7-1.4-2.6-2.1C46.8,23.3,45,25,43.1,26.8z"/>
			<linearGradient id="XMLID_45_" gradientUnits="userSpaceOnUse" x1="39.4296" y1="23.2916" x2="48.4067" y2="23.2916">
				<stop  offset="0" style="stop-color:#6ACFF6"/>
				<stop  offset="0.232" style="stop-color:#77D2F7"/>
				<stop  offset="0.6164" style="stop-color:#95DAF8"/>
				<stop  offset="1" style="stop-color:#B9E5FB"/>
			</linearGradient>
			<path id="XMLID_7238_" class="st19" d="M42.8,27.1c0.1-0.1,0.2-0.2,0.4-0.3c1.9-1.7,3.6-3.5,5.3-5.3c-0.9-0.7-1.7-1.3-2.6-1.9
				c-2,1.6-4.1,3.1-6.4,4.5C40.6,25,41.7,26,42.8,27.1z"/>
			<linearGradient id="XMLID_46_" gradientUnits="userSpaceOnUse" x1="0.1328" y1="7.1571" x2="9.7241" y2="7.1571">
				<stop  offset="0" style="stop-color:#6ACFF6"/>
				<stop  offset="0.232" style="stop-color:#77D2F7"/>
				<stop  offset="0.6164" style="stop-color:#95DAF8"/>
				<stop  offset="1" style="stop-color:#B9E5FB"/>
			</linearGradient>
			<path id="XMLID_7237_" class="st20" d="M9.7,6.4C6.5,6.2,3.3,6.1,0.1,6.3c0,0,0,0,0,0c3.2,0.4,6.4,1,9.6,1.9
				C9.7,7.6,9.7,7,9.7,6.4z"/>
			<linearGradient id="XMLID_47_" gradientUnits="userSpaceOnUse" x1="9.7161" y1="8.6859" x2="18.5172" y2="8.6859">
				<stop  offset="0" style="stop-color:#6ACFF6"/>
				<stop  offset="0.232" style="stop-color:#77D2F7"/>
				<stop  offset="0.6164" style="stop-color:#95DAF8"/>
				<stop  offset="1" style="stop-color:#B9E5FB"/>
			</linearGradient>
			<path id="XMLID_7236_" class="st21" d="M9.7,8.1c2.8,0.8,5.7,1.7,8.4,2.8c0.1-1.1,0.2-2.1,0.4-3.2c-2.9-0.6-5.9-1-8.8-1.3
				C9.7,7,9.7,7.6,9.7,8.1z"/>
			<linearGradient id="XMLID_48_" gradientUnits="userSpaceOnUse" x1="18.1634" y1="10.9634" x2="26.2493" y2="10.9634">
				<stop  offset="0" style="stop-color:#6ACFF6"/>
				<stop  offset="0.232" style="stop-color:#77D2F7"/>
				<stop  offset="0.6164" style="stop-color:#95DAF8"/>
				<stop  offset="1" style="stop-color:#B9E5FB"/>
			</linearGradient>
			<path id="XMLID_7235_" class="st22" d="M26.2,9.8c-0.1,0-0.3-0.1-0.4-0.1c-2.4-0.8-4.9-1.4-7.3-1.9c-0.1,1.1-0.3,2.1-0.4,3.2
				c2.4,1,4.7,2,7.1,3.3C25.5,12.7,25.9,11.2,26.2,9.8z"/>
			<linearGradient id="XMLID_49_" gradientUnits="userSpaceOnUse" x1="25.2257" y1="16.8778" x2="45.7979" y2="16.8778">
				<stop  offset="0" style="stop-color:#6ACFF6"/>
				<stop  offset="0.232" style="stop-color:#77D2F7"/>
				<stop  offset="0.6164" style="stop-color:#95DAF8"/>
				<stop  offset="1" style="stop-color:#B9E5FB"/>
			</linearGradient>
			<path id="XMLID_7234_" class="st23" d="M28.5,16c4,2.4,7.6,5,10.9,7.9c2.2-1.4,4.3-2.9,6.4-4.5c-5.9-4.1-12.4-7.4-19.5-9.7
				c-0.4,1.5-0.7,2.9-1,4.4C26.3,14.8,27.4,15.4,28.5,16z"/>
			<linearGradient id="XMLID_50_" gradientUnits="userSpaceOnUse" x1="21.6532" y1="53.3427" x2="29.5071" y2="53.3427">
				<stop  offset="0" style="stop-color:#6ACFF6"/>
				<stop  offset="0.232" style="stop-color:#77D2F7"/>
				<stop  offset="0.6164" style="stop-color:#95DAF8"/>
				<stop  offset="1" style="stop-color:#B9E5FB"/>
			</linearGradient>
			<path id="XMLID_7233_" class="st24" d="M21.7,50.4c2.5,2.4,5.1,4.7,7.9,6.7c-2.2-2.4-4.3-4.9-6.2-7.6
				C22.8,49.9,22.2,50.1,21.7,50.4z"/>
			<linearGradient id="XMLID_51_" gradientUnits="userSpaceOnUse" x1="23.331" y1="52.9189" x2="29.5445" y2="52.9189">
				<stop  offset="0" style="stop-color:#6ACFF6"/>
				<stop  offset="0.232" style="stop-color:#77D2F7"/>
				<stop  offset="0.6164" style="stop-color:#95DAF8"/>
				<stop  offset="1" style="stop-color:#B9E5FB"/>
			</linearGradient>
			<path id="XMLID_7232_" class="st25" d="M29.5,57.1c-1.7-2.7-3.3-5.5-4.7-8.4c-0.5,0.3-1,0.6-1.6,0.9
				C25.2,52.2,27.3,54.7,29.5,57.1C29.5,57.1,29.5,57.1,29.5,57.1C29.5,57.1,29.5,57.1,29.5,57.1z"/>
			<linearGradient id="XMLID_52_" gradientUnits="userSpaceOnUse" x1="24.8895" y1="52.4837" x2="29.5455" y2="52.4837">
				<stop  offset="0" style="stop-color:#6ACFF6"/>
				<stop  offset="0.232" style="stop-color:#77D2F7"/>
				<stop  offset="0.6164" style="stop-color:#95DAF8"/>
				<stop  offset="1" style="stop-color:#B9E5FB"/>
			</linearGradient>
			<path id="XMLID_7231_" class="st26" d="M24.9,48.7c1.4,2.9,2.9,5.7,4.7,8.4c0,0,0,0,0,0c-1.3-3-2.3-6.1-3.2-9.3
				C25.9,48.1,25.4,48.4,24.9,48.7z"/>
			<linearGradient id="XMLID_53_" gradientUnits="userSpaceOnUse" x1="26.3552" y1="43.8644" x2="49.4869" y2="43.8644">
				<stop  offset="0" style="stop-color:#6ACFF6"/>
				<stop  offset="0.232" style="stop-color:#77D2F7"/>
				<stop  offset="0.6164" style="stop-color:#95DAF8"/>
				<stop  offset="1" style="stop-color:#B9E5FB"/>
			</linearGradient>
			<path id="XMLID_7230_" class="st27" d="M26.4,47.9c0.9,3.2,1.9,6.3,3.2,9.3c7.9-5.8,14.7-13.3,19.9-22.3
				c-1.1-1.4-2.2-2.8-3.4-4.2C40.7,37.4,34,43.3,26.4,47.9z"/>
			<linearGradient id="XMLID_54_" gradientUnits="userSpaceOnUse" x1="14.9225" y1="46.041" x2="23.331" y2="46.041">
				<stop  offset="0" style="stop-color:#6ACFF6"/>
				<stop  offset="0.232" style="stop-color:#77D2F7"/>
				<stop  offset="0.6164" style="stop-color:#95DAF8"/>
				<stop  offset="1" style="stop-color:#B9E5FB"/>
			</linearGradient>
			<path id="XMLID_7229_" class="st28" d="M18.4,41.7c-1.2,0.4-2.3,0.8-3.5,1.2c2.1,2.7,4.3,5.3,6.7,7.6c0.6-0.3,1.1-0.6,1.7-0.9
				C21.5,47,19.9,44.4,18.4,41.7z"/>
			<linearGradient id="XMLID_55_" gradientUnits="userSpaceOnUse" x1="18.4292" y1="44.9963" x2="24.8895" y2="44.9963">
				<stop  offset="0" style="stop-color:#6ACFF6"/>
				<stop  offset="0.232" style="stop-color:#77D2F7"/>
				<stop  offset="0.6164" style="stop-color:#95DAF8"/>
				<stop  offset="1" style="stop-color:#B9E5FB"/>
			</linearGradient>
			<path id="XMLID_7228_" class="st29" d="M18.4,41.7c1.5,2.7,3.1,5.4,4.9,7.9c0.5-0.3,1-0.6,1.6-0.9c-1.3-2.7-2.4-5.4-3.3-8.3
				C20.6,40.9,19.5,41.3,18.4,41.7z"/>
			<linearGradient id="XMLID_56_" gradientUnits="userSpaceOnUse" x1="21.601" y1="43.9195" x2="26.3552" y2="43.9195">
				<stop  offset="0" style="stop-color:#6ACFF6"/>
				<stop  offset="0.232" style="stop-color:#77D2F7"/>
				<stop  offset="0.6164" style="stop-color:#95DAF8"/>
				<stop  offset="1" style="stop-color:#B9E5FB"/>
			</linearGradient>
			<path id="XMLID_7227_" class="st30" d="M24.6,39.1c-1,0.5-2,0.9-3,1.3c0.9,2.8,2,5.6,3.3,8.3c0.5-0.3,1-0.6,1.5-0.9
				C25.6,45,25,42.1,24.6,39.1z"/>
			<linearGradient id="XMLID_57_" gradientUnits="userSpaceOnUse" x1="24.5593" y1="37.4666" x2="46.0822" y2="37.4666">
				<stop  offset="0" style="stop-color:#6ACFF6"/>
				<stop  offset="0.232" style="stop-color:#77D2F7"/>
				<stop  offset="0.6164" style="stop-color:#95DAF8"/>
				<stop  offset="1" style="stop-color:#B9E5FB"/>
			</linearGradient>
			<path id="XMLID_7226_" class="st31" d="M42.8,27.1c-5.6,5-11.7,9-18.2,12.1c0.4,3,1,5.9,1.8,8.7c7.7-4.6,14.3-10.5,19.7-17.2
				C45,29.4,43.9,28.2,42.8,27.1z"/>
			<linearGradient id="XMLID_58_" gradientUnits="userSpaceOnUse" x1="9.4944" y1="38.3159" x2="18.4292" y2="38.3159">
				<stop  offset="0" style="stop-color:#6ACFF6"/>
				<stop  offset="0.232" style="stop-color:#77D2F7"/>
				<stop  offset="0.6164" style="stop-color:#95DAF8"/>
				<stop  offset="1" style="stop-color:#B9E5FB"/>
			</linearGradient>
			<path id="XMLID_7225_" class="st32" d="M14.8,33.8c-1.8,0.4-3.5,0.6-5.3,0.9c0,0,0,0,0,0.1c1.6,2.8,3.4,5.5,5.4,8.1
				c1.2-0.4,2.3-0.7,3.5-1.2C17.1,39.1,15.9,36.5,14.8,33.8z"/>
			<linearGradient id="XMLID_59_" gradientUnits="userSpaceOnUse" x1="14.7985" y1="37.1804" x2="21.601" y2="37.1804">
				<stop  offset="0" style="stop-color:#6ACFF6"/>
				<stop  offset="0.232" style="stop-color:#77D2F7"/>
				<stop  offset="0.6164" style="stop-color:#95DAF8"/>
				<stop  offset="1" style="stop-color:#B9E5FB"/>
			</linearGradient>
			<path id="XMLID_7224_" class="st33" d="M19.6,33.2c0-0.2-0.1-0.3-0.1-0.5c-1.6,0.4-3.1,0.8-4.7,1.1c1.1,2.7,2.3,5.3,3.6,7.8
				c1.1-0.4,2.1-0.8,3.2-1.2C20.8,38.1,20.2,35.6,19.6,33.2z"/>
			<linearGradient id="XMLID_60_" gradientUnits="userSpaceOnUse" x1="19.5144" y1="35.9074" x2="24.5593" y2="35.9074">
				<stop  offset="0" style="stop-color:#6ACFF6"/>
				<stop  offset="0.232" style="stop-color:#77D2F7"/>
				<stop  offset="0.6164" style="stop-color:#95DAF8"/>
				<stop  offset="1" style="stop-color:#B9E5FB"/>
			</linearGradient>
			<path id="XMLID_7223_" class="st34" d="M19.5,32.7c0,0.2,0.1,0.3,0.1,0.5c0.5,2.5,1.2,4.9,2,7.3c1-0.4,2-0.8,3-1.3
				c-0.4-2.5-0.6-5.1-0.7-7.8C22.4,31.9,21,32.3,19.5,32.7z"/>
			<linearGradient id="XMLID_61_" gradientUnits="userSpaceOnUse" x1="23.8618" y1="31.5574" x2="42.7567" y2="31.5574">
				<stop  offset="0" style="stop-color:#6ACFF6"/>
				<stop  offset="0.232" style="stop-color:#77D2F7"/>
				<stop  offset="0.6164" style="stop-color:#95DAF8"/>
				<stop  offset="1" style="stop-color:#B9E5FB"/>
			</linearGradient>
			<path id="XMLID_7222_" class="st35" d="M39.4,24c-1,0.7-2.1,1.3-3.2,1.9c-4,2.3-8.2,4.1-12.4,5.5c0.1,2.6,0.3,5.2,0.7,7.8
				c6.5-3,12.6-7,18.2-12.1C41.7,26,40.6,25,39.4,24z"/>
			<linearGradient id="XMLID_62_" gradientUnits="userSpaceOnUse" x1="0.1335" y1="20.4737" x2="14.7985" y2="20.4737">
				<stop  offset="0" style="stop-color:#6ACFF6"/>
				<stop  offset="0.232" style="stop-color:#77D2F7"/>
				<stop  offset="0.6164" style="stop-color:#95DAF8"/>
				<stop  offset="1" style="stop-color:#B9E5FB"/>
			</linearGradient>
			<path id="XMLID_7221_" class="st36" d="M0.1,6.3C1.2,16,4.3,25.7,9.5,34.7c1.8-0.2,3.5-0.5,5.3-0.9c-3.2-8.1-4.9-16.7-5.1-25.7
				C6.6,7.3,3.3,6.7,0.1,6.3z"/>
			<linearGradient id="XMLID_63_" gradientUnits="userSpaceOnUse" x1="9.7241" y1="20.9751" x2="19.5144" y2="20.9751">
				<stop  offset="0" style="stop-color:#6ACFF6"/>
				<stop  offset="0.232" style="stop-color:#77D2F7"/>
				<stop  offset="0.6164" style="stop-color:#95DAF8"/>
				<stop  offset="1" style="stop-color:#B9E5FB"/>
			</linearGradient>
			<path id="XMLID_7220_" class="st37" d="M18.2,10.9c-2.8-1.1-5.6-2-8.4-2.8c0.1,9,1.9,17.6,5.1,25.7c1.6-0.3,3.2-0.7,4.7-1.1
				C17.9,25.4,17.5,18,18.2,10.9z"/>
			<linearGradient id="XMLID_64_" gradientUnits="userSpaceOnUse" x1="17.8837" y1="21.8187" x2="25.2257" y2="21.8187">
				<stop  offset="0" style="stop-color:#6ACFF6"/>
				<stop  offset="0.232" style="stop-color:#77D2F7"/>
				<stop  offset="0.6164" style="stop-color:#95DAF8"/>
				<stop  offset="1" style="stop-color:#B9E5FB"/>
			</linearGradient>
			<path id="XMLID_7219_" class="st38" d="M23.8,27.7c0.1-4.6,0.5-9.1,1.4-13.5c-2.3-1.2-4.7-2.3-7.1-3.3
				c-0.6,7.1-0.2,14.4,1.4,21.8c1.5-0.4,2.9-0.8,4.3-1.3C23.8,30.1,23.8,28.9,23.8,27.7z"/>
			<linearGradient id="XMLID_65_" gradientUnits="userSpaceOnUse" x1="23.8109" y1="22.7919" x2="39.4296" y2="22.7919">
				<stop  offset="0" style="stop-color:#6ACFF6"/>
				<stop  offset="0.232" style="stop-color:#77D2F7"/>
				<stop  offset="0.6164" style="stop-color:#95DAF8"/>
				<stop  offset="1" style="stop-color:#B9E5FB"/>
			</linearGradient>
			<path id="XMLID_7218_" class="st39" d="M25.2,14.2c-0.9,4.4-1.3,8.9-1.4,13.5c0,1.2,0,2.5,0,3.7c4.2-1.4,8.4-3.3,12.4-5.5
				c1.1-0.6,2.1-1.2,3.2-1.9c-3.3-2.9-7-5.6-10.9-7.9C27.4,15.4,26.3,14.8,25.2,14.2z"/>
		</g>
		<path id="XMLID_7216_" class="st40" d="M49.4,34.9C49.4,34.9,49.4,34.9,49.4,34.9c0,0,0.1,0,0.1,0C49.5,34.9,49.5,34.9,49.4,34.9z
			"/>
		<g id="XMLID_7101_">
			<g id="XMLID_7103_">
				<polygon id="XMLID_7215_" class="st41" points="29.6,57.2 29.6,57.1 29.5,57.2 29.4,57.1 29.5,57 29.6,56.9 29.7,57.1 
					29.6,57.1 29.6,57.2 29.6,57.1 29.6,57.1 				"/>
				<path id="XMLID_7212_" class="st41" d="M57.1,16.6L57,16.5c-0.5-0.3-1.1-0.7-1.6-1l-0.1-0.1l0-0.1c1.3-2.9,2.5-6,3.4-9l0.2,0
					c-0.4,3.4-1,6.8-1.9,10.1L57.1,16.6z M55.6,15.3c0.5,0.3,0.9,0.6,1.4,0.9c0.7-2.8,1.3-5.7,1.7-8.6
					C57.8,10.2,56.8,12.8,55.6,15.3z"/>
				<path id="XMLID_7209_" class="st41" d="M55.5,15.5l-0.1-0.1c-0.5-0.3-1-0.6-1.5-0.9l-0.1-0.1l0.1-0.1c1.8-2.6,3.5-5.4,4.9-8.2
					l0.1-0.1L59,6.2l0,0.2c-0.9,3.1-2.1,6.1-3.5,9.1L55.5,15.5z M54.1,14.4c0.4,0.3,0.9,0.5,1.3,0.8c1.2-2.6,2.2-5.3,3.1-8
					C57.2,9.7,55.7,12.1,54.1,14.4z"/>
				<path id="XMLID_7206_" class="st41" d="M54,14.6L54,14.6c-0.6-0.3-1.1-0.6-1.6-0.9l-0.1-0.1l0.1-0.1c2.3-2.3,4.4-4.8,6.4-7.4
					l0.1-0.1L59,6.2L59,6.3C57.5,9.1,55.8,11.9,54,14.6L54,14.6z M52.6,13.6c0.4,0.2,0.8,0.5,1.2,0.7c1.6-2.2,3-4.6,4.3-7
					C56.4,9.5,54.6,11.6,52.6,13.6z"/>
				<path id="XMLID_7203_" class="st41" d="M0.2,6.3L0.1,6.1c3.1-1.4,6.4-2.5,9.7-3.4l0.2,0l0,0.2c0,0.6-0.1,1.3-0.1,1.9l0,0.1
					l-0.1,0C6.6,5.1,3.3,5.6,0.2,6.3z M9.7,2.9C6.9,3.7,4.1,4.7,1.4,5.8c2.7-0.6,5.5-1,8.3-1.3C9.7,4,9.7,3.5,9.7,2.9z"/>
				<path id="XMLID_7200_" class="st41" d="M9.6,4.8l0-0.1c0-0.6,0-1.3,0.1-1.9l0-0.1l0.1,0c3.3-0.9,6.6-1.6,10-2l0.2,0l0,0.2
					c-0.3,1.2-0.5,2.4-0.7,3.6l0,0.1l-0.1,0c-3.1-0.1-6.2,0-9.3,0.3L9.6,4.8z M10,2.9c0,0.6-0.1,1.1-0.1,1.7c3-0.3,6.1-0.4,9.1-0.3
					c0.2-1.1,0.4-2.2,0.7-3.4C16.4,1.3,13.1,2,10,2.9z"/>
				<path id="XMLID_7197_" class="st41" d="M27.7,5.3L27.7,5.3c-2.9-0.4-5.8-0.7-8.7-0.8l-0.1,0l0-0.1c0.2-1.2,0.5-2.4,0.7-3.6
					l0-0.1l0.1,0C23,0.2,26.3,0,29.5,0l0.2,0l-0.1,0.2C29,1.8,28.3,3.5,27.7,5.3L27.7,5.3z M19.2,4.3C22,4.3,24.8,4.6,27.6,5
					c0.5-1.6,1.1-3.2,1.8-4.8c-3.2,0-6.4,0.2-9.5,0.6C19.6,2,19.4,3.1,19.2,4.3z"/>
				<path id="XMLID_7194_" class="st41" d="M52.5,13.7L52.5,13.7c-7.8-4.3-16.1-7.2-24.8-8.5l-0.1,0l0-0.1c0.6-1.7,1.2-3.4,1.9-5
					l0-0.1l0.1,0c10.2,0,20.1,2.1,29.4,6.1l0.1,0.1L59,6.3C57,8.9,54.8,11.4,52.5,13.7L52.5,13.7z M27.8,5c8.7,1.3,17,4.1,24.6,8.4
					c2.2-2.2,4.3-4.7,6.3-7.2c-9.2-4-19-6-29.1-6C29,1.8,28.3,3.4,27.8,5z"/>
				<path id="XMLID_7191_" class="st41" d="M53.9,26.2l-0.1-0.1c-0.9-0.8-1.8-1.7-2.8-2.5l-0.1-0.1l0.1-0.1c1.6-2.6,3.1-5.4,4.4-8.2
					l0.1-0.1l0.1,0.1c0.5,0.3,1.1,0.7,1.6,1l0.1,0l0,0.1c-0.8,3.3-1.9,6.5-3.2,9.6L53.9,26.2z M51.2,23.5c0.9,0.7,1.7,1.5,2.6,2.3
					c1.3-3,2.3-6.2,3.1-9.4c-0.5-0.3-0.9-0.6-1.4-0.9C54.2,18.3,52.8,21,51.2,23.5z"/>
				<path id="XMLID_7188_" class="st41" d="M51.1,23.7L51,23.6c-0.9-0.7-1.8-1.5-2.6-2.1l-0.1-0.1l0.1-0.1c2-2.2,3.8-4.5,5.5-7
					l0.1-0.1l0.1,0.1c0.5,0.3,1,0.6,1.5,0.9l0.1,0.1l0,0.1c-1.3,2.8-2.8,5.6-4.4,8.2L51.1,23.7z M48.6,21.4c0.8,0.6,1.6,1.3,2.4,2
					c1.6-2.6,3-5.2,4.3-8c-0.4-0.3-0.9-0.5-1.3-0.8C52.3,17,50.5,19.2,48.6,21.4z"/>
				<path id="XMLID_7185_" class="st41" d="M48.4,21.6L48.4,21.6c-0.9-0.7-1.8-1.4-2.7-2l-0.1-0.1l0.1-0.1c2.3-1.8,4.6-3.8,6.6-5.9
					l0.1-0.1l0.1,0c0.5,0.3,1,0.6,1.5,0.8l0.1,0.1L54,14.5C52.3,16.9,50.5,19.3,48.4,21.6L48.4,21.6z M46,19.5
					c0.8,0.6,1.6,1.2,2.4,1.8c1.9-2.1,3.7-4.4,5.4-6.8c-0.4-0.2-0.9-0.5-1.3-0.7C50.4,15.8,48.3,17.7,46,19.5z"/>
				<path id="XMLID_7182_" class="st41" d="M9.8,6.6l-0.1,0C6.5,6.3,3.3,6.2,0.1,6.4L0,6.4l0-0.2l0.1-0.1c3.1-0.7,6.4-1.2,9.6-1.6
					l0.1,0l0,0.1c0,0.6,0,1.2,0,1.8L9.8,6.6z M3.6,6.1c2,0,4,0.1,6,0.2c0-0.5,0-1,0-1.5C6.8,5.1,4,5.5,1.2,6.1
					C2,6.1,2.8,6.1,3.6,6.1z"/>
				<path id="XMLID_7179_" class="st41" d="M18.6,7.9l-0.1,0c-2.9-0.6-5.8-1-8.8-1.3l-0.1,0l0-0.1c0-0.6,0-1.2,0-1.8l0-0.1l0.1,0
					C12.8,4.3,16,4.2,19,4.3l0.1,0l0,0.1c-0.2,1.1-0.4,2.2-0.5,3.4L18.6,7.9z M9.8,6.3c2.9,0.2,5.8,0.7,8.6,1.3
					c0.1-1,0.3-2.1,0.5-3.1c-3-0.1-6,0-9,0.3C9.9,5.3,9.8,5.8,9.8,6.3z"/>
				<path id="XMLID_7176_" class="st41" d="M26.3,9.9l-0.3-0.1c-0.1,0-0.2-0.1-0.3-0.1c-2.4-0.8-4.8-1.4-7.3-1.9l-0.1,0l0-0.1
					c0.1-1.1,0.3-2.2,0.5-3.4l0-0.1l0.1,0c2.9,0.1,5.8,0.3,8.6,0.8l0.1,0l0,0.1c-0.5,1.5-1,3.1-1.4,4.6L26.3,9.9z M18.6,7.6
					c2.4,0.5,4.8,1.1,7.2,1.9l0,0c0.1,0,0.2,0.1,0.3,0.1l0,0c0.4-1.5,0.8-3,1.3-4.4c-2.8-0.4-5.6-0.7-8.3-0.7
					C19,5.5,18.8,6.6,18.6,7.6z"/>
				<path id="XMLID_7173_" class="st41" d="M45.8,19.6L45.8,19.6c-6-4.2-12.6-7.5-19.6-9.8l-0.1,0l0-0.1c0.4-1.6,0.9-3.1,1.4-4.6
					l0-0.1l0.1,0c8.8,1.3,17.1,4.2,24.8,8.5l0.1,0.1l-0.1,0.1C50.4,15.8,48.2,17.8,45.8,19.6L45.8,19.6z M26.4,9.7
					c6.9,2.3,13.5,5.5,19.4,9.7c2.3-1.8,4.4-3.7,6.5-5.7c-7.6-4.2-15.9-7-24.5-8.4C27.2,6.7,26.8,8.2,26.4,9.7z"/>
				<path id="XMLID_7170_" class="st41" d="M49.5,35l-0.1-0.1c-1.1-1.4-2.2-2.8-3.4-4.2l-0.1-0.1l0.1-0.1c1.8-2.2,3.5-4.6,5-7
					l0.1-0.1l0.1,0.1c0.9,0.8,1.9,1.6,2.8,2.5L54,26l0,0.1c-1.2,3-2.7,5.9-4.3,8.7L49.5,35z M46.2,30.6c1.1,1.3,2.2,2.6,3.2,4
					c1.6-2.7,3-5.6,4.2-8.5c-0.8-0.8-1.7-1.6-2.6-2.3C49.6,26.1,48,28.4,46.2,30.6z"/>
				<path id="XMLID_7167_" class="st41" d="M46.1,30.8L46,30.7c-1.1-1.2-2.2-2.4-3.3-3.5l-0.1-0.1l0.2-0.2c0.1-0.1,0.2-0.2,0.3-0.2
					l0,0c1.8-1.7,3.6-3.5,5.3-5.3l0.1-0.1l0.1,0.1c0.9,0.7,1.8,1.4,2.7,2.1l0.1,0.1l-0.1,0.1c-1.5,2.4-3.2,4.8-5,7.1L46.1,30.8z
					 M42.9,27.1c1.1,1.1,2.1,2.2,3.1,3.3c1.7-2.2,3.4-4.5,4.8-6.9c-0.8-0.7-1.6-1.4-2.5-2c-1.6,1.8-3.4,3.6-5.2,5.3l0,0
					C43.1,26.9,43,27,42.9,27.1L42.9,27.1z"/>
				<path id="XMLID_7164_" class="st41" d="M42.8,27.2L42.8,27.2c-1.1-1.1-2.3-2.2-3.4-3.2L39.2,24l0.1-0.1c2.2-1.4,4.3-2.9,6.4-4.5
					l0.1-0.1l0.1,0.1c0.9,0.6,1.8,1.3,2.6,1.9l0.1,0.1l-0.1,0.1c-1.7,1.9-3.4,3.7-5.3,5.3c-0.1,0.1-0.2,0.2-0.3,0.2L42.8,27.2z
					 M39.6,24c1.1,0.9,2.1,1.9,3.1,2.9l0,0c0.1-0.1,0.2-0.2,0.3-0.2c1.8-1.7,3.6-3.4,5.2-5.2c-0.8-0.6-1.6-1.2-2.4-1.8
					C43.8,21.2,41.8,22.7,39.6,24z"/>
				<path id="XMLID_7161_" class="st41" d="M9.8,8.3l-0.1,0C6.6,7.4,3.3,6.8,0.1,6.4L0,6.4l0-0.2l0.1,0C3.3,6,6.5,6.1,9.7,6.3l0.1,0
					l0,0.1c0,0.6,0,1.1,0,1.7L9.8,8.3z M1.5,6.3C4.2,6.7,6.9,7.3,9.6,8c0-0.5,0-1,0-1.4C6.9,6.3,4.2,6.3,1.5,6.3z"/>
				<path id="XMLID_7158_" class="st41" d="M18.3,11.1L18.1,11c-2.7-1.1-5.6-2-8.4-2.8l-0.1,0l0-0.1c0-0.6,0-1.1,0-1.7l0-0.1l0.1,0
					c3,0.2,5.9,0.7,8.8,1.3l0.1,0l0,0.1c-0.1,1.1-0.3,2.1-0.4,3.2L18.3,11.1z M9.8,8c2.8,0.7,5.5,1.7,8.2,2.7c0.1-1,0.2-2,0.3-2.9
					c-2.8-0.6-5.7-1-8.6-1.2C9.8,7.1,9.8,7.6,9.8,8z"/>
				<path id="XMLID_7155_" class="st41" d="M25.3,14.4l-0.1-0.1c-2.3-1.2-4.7-2.3-7.1-3.3L18,11l0-0.1c0.1-1.1,0.2-2.1,0.4-3.2
					l0-0.1l0.1,0c2.5,0.5,4.9,1.2,7.3,1.9c0.1,0,0.2,0.1,0.3,0.1l0.3,0.1l0,0.1c-0.4,1.5-0.7,2.9-1,4.4L25.3,14.4z M18.3,10.9
					c2.3,0.9,4.6,2,6.9,3.2c0.3-1.4,0.6-2.8,1-4.2l0,0c-0.1,0-0.2-0.1-0.3-0.1C23.4,9,21,8.4,18.6,7.9C18.5,8.9,18.4,9.9,18.3,10.9z
					"/>
				<path id="XMLID_7152_" class="st41" d="M39.4,24.1L39.4,24.1c-3.4-3-7.1-5.7-11-8l0,0c-1.1-0.6-2.2-1.2-3.3-1.8l-0.1,0l0-0.1
					c0.3-1.5,0.6-3,1-4.4l0-0.1l0.1,0c7,2.3,13.6,5.5,19.6,9.7l0.1,0.1l-0.1,0.1C43.8,21.2,41.7,22.7,39.4,24.1L39.4,24.1z
					 M25.4,14.1c1.1,0.6,2.1,1.2,3.2,1.8l0,0c3.9,2.3,7.5,5,10.9,7.9c2.1-1.3,4.2-2.8,6.2-4.3c-5.9-4.1-12.4-7.3-19.3-9.6
					C26,11.3,25.6,12.7,25.4,14.1z"/>
				<path id="XMLID_7149_" class="st41" d="M29.4,57.2c-2.8-2-5.4-4.3-7.9-6.7l-0.1-0.1l0.1-0.1c0.6-0.3,1.1-0.6,1.7-0.9l0.1,0
					l0.1,0.1c1.9,2.6,4,5.2,6.2,7.6L29.4,57.2z M21.9,50.5c2.1,2.1,4.4,4,6.7,5.8c-1.9-2.1-3.6-4.3-5.3-6.6
					C22.8,50,22.3,50.2,21.9,50.5z"/>
				<path id="XMLID_7146_" class="st41" d="M29.5,57.3L29.5,57.3c-2.3-2.5-4.4-5-6.3-7.7l-0.1-0.1l0.1-0.1c0.5-0.3,1-0.6,1.6-0.9
					l0.1-0.1l0.1,0.1c1.4,2.9,2.9,5.7,4.6,8.4l0.1,0.1L29.5,57.3z M23.5,49.6c1.6,2.3,3.4,4.5,5.3,6.6c-1.5-2.4-2.8-4.8-4-7.4
					C24.4,49.1,23.9,49.4,23.5,49.6z"/>
				<path id="XMLID_7143_" class="st41" d="M29.5,57.3l-0.1-0.1c-1.7-2.7-3.3-5.5-4.7-8.4l0-0.1l0.1-0.1c0.5-0.3,1-0.6,1.5-0.8
					l0.1-0.1l0,0.1c0.8,3.1,1.9,6.3,3.2,9.3l0,0.1L29.5,57.3L29.5,57.3z M25,48.8c1.2,2.4,2.5,4.9,3.9,7.2c-1-2.6-1.9-5.2-2.6-7.9
					C25.9,48.3,25.5,48.5,25,48.8z"/>
				<path id="XMLID_7140_" class="st41" d="M29.5,57.3l-0.1-0.1c-1.3-3-2.3-6.1-3.2-9.3l0-0.1l0.1,0c7.6-4.5,14.2-10.3,19.7-17.2
					l0.1-0.1l0.1,0.1c1.2,1.3,2.3,2.7,3.4,4.2l0,0.1l0,0.1c-5.1,8.8-11.8,16.4-20,22.4L29.5,57.3z M26.5,47.9c0.8,3.1,1.9,6.1,3.1,9
					c8-6,14.7-13.4,19.7-22.1c-1-1.4-2.1-2.7-3.3-4C40.6,37.7,34,43.4,26.5,47.9z"/>
				<path id="XMLID_7137_" class="st41" d="M21.6,50.6L21.6,50.6c-2.5-2.4-4.7-5-6.8-7.7l-0.1-0.1l0.2,0c1.2-0.4,2.3-0.7,3.5-1.2
					l0.1,0l0,0.1c1.5,2.7,3.1,5.4,4.9,7.9l0.1,0.1l-0.1,0.1C22.8,50,22.3,50.2,21.6,50.6L21.6,50.6z M15.1,42.9
					c2,2.6,4.2,5.1,6.6,7.4c0.5-0.3,1-0.5,1.5-0.8c-1.7-2.5-3.4-5.1-4.8-7.7C17.3,42.2,16.2,42.5,15.1,42.9z"/>
				<path id="XMLID_7134_" class="st41" d="M23.3,49.7L23.3,49.7c-1.9-2.6-3.5-5.3-5-8l-0.1-0.1l0.1,0c1.1-0.4,2.1-0.8,3.2-1.2
					l0.1,0l0,0.1c0.9,2.8,2,5.6,3.3,8.3l0,0.1l-0.1,0.1C24.4,49.1,23.9,49.4,23.3,49.7L23.3,49.7z M18.6,41.7c1.4,2.6,3,5.2,4.8,7.7
					c0.5-0.2,0.9-0.5,1.4-0.8c-1.2-2.6-2.3-5.3-3.2-8.1C20.6,41,19.6,41.4,18.6,41.7z"/>
				<path id="XMLID_7131_" class="st41" d="M24.8,48.9l-0.1-0.1c-1.3-2.7-2.4-5.5-3.3-8.3l0-0.1l0.1,0c1-0.4,2-0.8,3-1.3l0.1-0.1
					l0,0.2c0.4,2.9,1,5.9,1.8,8.7l0,0.1l-0.1,0c-0.5,0.3-1,0.6-1.5,0.9L24.8,48.9z M21.7,40.5c0.9,2.7,2,5.4,3.2,8
					c0.4-0.2,0.9-0.5,1.3-0.7c-0.7-2.8-1.3-5.6-1.8-8.5C23.6,39.7,22.7,40.1,21.7,40.5z"/>
				<path id="XMLID_7128_" class="st41" d="M26.3,48l0-0.1c-0.8-2.9-1.4-5.8-1.8-8.7l0-0.1l0.1,0c6.6-3.1,12.7-7.1,18.2-12l0.1-0.1
					l0.1,0.1c1.1,1.1,2.3,2.3,3.3,3.5l0.1,0.1l-0.1,0.1C40.7,37.6,34,43.4,26.4,48L26.3,48z M24.7,39.2c0.4,2.8,1,5.7,1.7,8.5
					c7.5-4.5,14-10.2,19.5-17.1c-1-1.1-2.1-2.3-3.2-3.4C37.3,32.1,31.2,36.1,24.7,39.2z"/>
				<path id="XMLID_7125_" class="st41" d="M14.9,43L14.9,43c-2-2.6-3.8-5.3-5.5-8.2l-0.1-0.2l0.2,0c1.8-0.2,3.5-0.5,5.3-0.9l0.1,0
					l0,0.1c1,2.7,2.3,5.3,3.6,7.8l0.1,0.1l-0.1,0C17.3,42.2,16.1,42.6,14.9,43L14.9,43z M9.7,34.8c1.6,2.7,3.4,5.4,5.3,7.9
					c1.1-0.3,2.2-0.7,3.3-1.1c-1.3-2.5-2.5-5-3.5-7.6C13.1,34.3,11.4,34.6,9.7,34.8z"/>
				<path id="XMLID_7122_" class="st41" d="M18.4,41.8L18.4,41.8c-1.4-2.6-2.6-5.3-3.7-7.9l-0.1-0.1l0.1,0c1.6-0.3,3.2-0.7,4.7-1.1
					l0.1,0l0.1,0.3c0,0.1,0,0.2,0.1,0.3l0,0c0.5,2.5,1.2,4.9,2,7.3l0,0.1l-0.1,0C20.6,41,19.5,41.4,18.4,41.8L18.4,41.8z M15,33.9
					c1,2.6,2.2,5.1,3.5,7.6c1-0.4,2-0.7,3-1.1c-0.8-2.3-1.4-4.8-2-7.2l0,0c0-0.1,0-0.2-0.1-0.3l0,0C17.9,33.2,16.4,33.6,15,33.9z"/>
				<path id="XMLID_7119_" class="st41" d="M21.5,40.6l0-0.1c-0.8-2.4-1.5-4.8-2-7.3c0-0.1,0-0.2-0.1-0.3l-0.1-0.3l0.1,0
					c1.5-0.4,2.9-0.8,4.3-1.3l0.1-0.1l0,0.2c0.1,2.6,0.3,5.2,0.7,7.7l0,0.1l-0.1,0c-1,0.5-2,0.9-3,1.3L21.5,40.6z M19.7,32.8
					L19.7,32.8c0,0.1,0.1,0.2,0.1,0.3c0.5,2.4,1.2,4.8,1.9,7.1c0.9-0.4,1.8-0.8,2.8-1.2c-0.4-2.5-0.6-5-0.7-7.5
					C22.4,32,21,32.4,19.7,32.8z"/>
				<path id="XMLID_7116_" class="st41" d="M24.5,39.3l0-0.2c-0.4-2.6-0.6-5.2-0.7-7.8l0-0.1l0.1,0c4.3-1.4,8.4-3.3,12.4-5.5
					c1.1-0.6,2.1-1.2,3.2-1.9l0.1,0l0.1,0.1c1.1,1,2.3,2,3.3,3.1l0.1,0.1l-0.1,0.1c-5.5,4.9-11.6,9-18.2,12.1L24.5,39.3z M24,31.5
					c0.1,2.5,0.3,5,0.7,7.5c6.5-3,12.5-7,17.9-11.9c-1-1-2.1-2-3.2-3c-1,0.6-2.1,1.3-3.1,1.8C32.4,28.2,28.2,30,24,31.5z"/>
				<path id="XMLID_7113_" class="st41" d="M9.4,34.8L9.4,34.8C4.3,25.9,1.1,16.3,0,6.3l0-0.1l0.1,0c3.2,0.4,6.5,1,9.6,1.9l0.1,0
					l0,0.1c0.1,8.8,1.8,17.4,5.1,25.6l0.1,0.1l-0.1,0C13.1,34.3,11.3,34.6,9.4,34.8L9.4,34.8z M0.3,6.4c1.1,9.9,4.3,19.4,9.3,28.1
					c1.7-0.2,3.4-0.5,5.1-0.8c-3.2-8.2-4.9-16.7-5-25.5C6.5,7.4,3.4,6.8,0.3,6.4z"/>
				<path id="XMLID_7110_" class="st41" d="M14.7,34L14.7,34c-3.3-8.3-5-17-5.1-25.8l0-0.2l0.1,0c2.9,0.8,5.7,1.7,8.5,2.8l0.1,0
					l0,0.1c-0.6,7.2-0.2,14.6,1.3,21.7l0,0.1l-0.1,0C18,33.2,16.4,33.6,14.7,34L14.7,34z M9.8,8.3c0.1,8.7,1.8,17.3,5,25.4
					c1.5-0.3,3-0.7,4.5-1.1c-1.5-7.1-2-14.4-1.3-21.6C15.4,9.9,12.6,9,9.8,8.3z"/>
				<path id="XMLID_7107_" class="st41" d="M19.4,32.9l0-0.1c-1.5-7.2-2-14.5-1.4-21.8l0-0.2l0.1,0.1c2.4,1,4.8,2.1,7.1,3.3l0.1,0
					l0,0.1c-0.9,4.4-1.3,8.9-1.4,13.4c0,1.2,0,2.5,0,3.7l0,0.1l-0.1,0c-1.4,0.5-2.9,0.9-4.4,1.3L19.4,32.9z M18.3,11.1
					c-0.6,7.2-0.2,14.4,1.3,21.5c1.4-0.4,2.8-0.8,4.1-1.3c0-1.2-0.1-2.4,0-3.6c0.1-4.5,0.5-9,1.4-13.4C22.9,13.1,20.6,12,18.3,11.1z
					"/>
				<path id="XMLID_7104_" class="st41" d="M23.8,31.5l0-0.2c0-1.2-0.1-2.5,0-3.7c0.1-4.5,0.5-9.1,1.4-13.5l0-0.2l0.1,0.1
					c1.1,0.6,2.2,1.2,3.3,1.8c3.9,2.3,7.6,5,11,8l0.1,0.1l-0.1,0.1c-1,0.7-2.1,1.3-3.2,1.9c-4,2.2-8.1,4.1-12.4,5.5L23.8,31.5z
					 M25.3,14.4c-0.9,4.3-1.3,8.8-1.4,13.3c0,1.2,0,2.4,0,3.6c4.2-1.4,8.3-3.3,12.2-5.5c1-0.6,2-1.2,3-1.8c-3.3-2.9-7-5.5-10.8-7.8
					C27.4,15.5,26.4,14.9,25.3,14.4z"/>
			</g>
			<path id="XMLID_7102_" class="st41" d="M21.7,50.5l-0.1-0.2c6.8-2.3,12.1-4.7,16.8-7.5c4.1-2.5,7.2-5,10.8-8l0.1,0.2
				c-3.6,3-6.7,5.5-10.9,8C33.9,45.8,28.5,48.2,21.7,50.5z"/>
		</g>
		<g id="XMLID_7098_" class="st42">
			<linearGradient id="XMLID_66_" gradientUnits="userSpaceOnUse" x1="14.9225" y1="32.4402" x2="55.4505" y2="32.4402">
				<stop  offset="0" style="stop-color:#69AFE0"/>
				<stop  offset="0.1291" style="stop-color:#5EABDE"/>
				<stop  offset="0.3438" style="stop-color:#3AA1D9"/>
				<stop  offset="0.5843" style="stop-color:#0094D3"/>
				<stop  offset="1" style="stop-color:#007FC3"/>
			</linearGradient>
			<path id="XMLID_7100_" class="st43" d="M46.1,30.6c1.8-2.3,3.5-4.6,5-7.1c1.6-2.6,3.1-5.4,4.4-8.2c-0.5-0.3-1-0.6-1.5-0.9
				c-1.7,2.4-3.5,4.7-5.5,7c-1.7,1.8-3.4,3.6-5.3,5.3c-0.1,0.1-0.2,0.2-0.4,0.3c-5.6,5-11.7,9-18.2,12.1c-1,0.5-2,0.9-3,1.3
				c-1,0.4-2.1,0.8-3.2,1.2c-1.2,0.4-2.3,0.8-3.5,1.2c0,0.1,0.1,0.1,0.1,0.2c0,0,0,0,0,0c1.6,2.1,3.4,4.1,5.2,6
				c0.1,0.1,0.2,0.2,0.3,0.3c0.1,0.1,0.3,0.3,0.4,0.4c0.2,0.2,0.5,0.5,0.7,0.7c0,0,0.1,0.1,0.1,0.1c0.1,0-0.1,0,0,0
				c5.6-1.9,10.7-4,15.7-6.8c4.3-2.5,8.2-5.3,11.8-8.5c0,0,0.1-0.1,0,0c0,0,0,0,0,0c-3.7,1.9-7.7,3.5-11.8,4.7
				C40.6,37,43.5,33.9,46.1,30.6z"/>
			<linearGradient id="XMLID_67_" gradientUnits="userSpaceOnUse" x1="0.1328" y1="15.0791" x2="45.7979" y2="15.0791">
				<stop  offset="0" style="stop-color:#69AFE0"/>
				<stop  offset="0.1291" style="stop-color:#5EABDE"/>
				<stop  offset="0.3438" style="stop-color:#3AA1D9"/>
				<stop  offset="0.5843" style="stop-color:#0094D3"/>
				<stop  offset="1" style="stop-color:#007FC3"/>
			</linearGradient>
			<path id="XMLID_7099_" class="st44" d="M25.2,14.2c1.1,0.6,2.2,1.2,3.3,1.8c4,2.4,7.6,5,10.9,7.9c2.2-1.4,4.3-2.9,6.4-4.5
				c-5.9-4.1-12.4-7.4-19.5-9.7c-0.1,0-0.3-0.1-0.4-0.1c-2.4-0.8-4.9-1.4-7.3-1.9c-2.9-0.6-5.9-1-8.8-1.3C6.5,6.2,3.3,6.1,0.1,6.3
				c0,0,0,0,0,0c3.2,0.4,6.4,1,9.6,1.9c2.8,0.8,5.7,1.7,8.4,2.8C20.6,11.9,22.9,13,25.2,14.2z"/>
		</g>
		<g id="XMLID_7092_">
			<g id="XMLID_7093_">
				<path id="XMLID_7097_" class="st45" d="M27.8,37.5c5.3-2.8,10.3-6.3,15-10.5c0.1-0.1,0.2-0.2,0.4-0.3c1.9-1.7,3.6-3.5,5.3-5.3
					c2-2.2,3.8-4.6,5.5-7c-0.5-0.3-1-0.6-1.5-0.8c-7.8-4.4-16.2-7.2-24.8-8.5c-2.9-0.4-5.7-0.7-8.6-0.8c-3.1-0.1-6.2,0-9.3,0.3
					C6.5,5,3.3,5.5,0.2,6.2c0,0,0,0,0,0c0,0,0,0,0,0c3.2-0.2,6.4-0.1,9.6,0.2c2.9,0.2,5.9,0.7,8.8,1.3c2.4,0.5,4.9,1.1,7.3,1.9
					c0.1,0,0.3,0.1,0.4,0.1c7.1,2.3,13.7,5.6,19.5,9.7c-2,1.6-4.1,3.1-6.4,4.5c-1,0.7-2.1,1.3-3.2,1.9c-4,2.3-8.2,4.1-12.4,5.5
					c-1.4,0.5-2.9,0.9-4.3,1.3c-1.6,0.4-3.1,0.8-4.7,1.1c-1.8,0.4-3.5,0.6-5.3,0.9c0,0,0,0,0,0h0c0,0,0,0,0,0
					c0.2,0.4,0.4,0.7,0.6,1.1c0.1,0.1,0.1,0.2,0.2,0.3c0.2,0.3,0.3,0.5,0.5,0.8c0.1,0.1,0.1,0.2,0.2,0.2c0.2,0.3,0.3,0.5,0.5,0.8
					c0,0.1,0.1,0.1,0.1,0.2c0.2,0.3,0.4,0.5,0.5,0.8c0,0.1,0.1,0.1,0.1,0.2c0.2,0.3,0.4,0.6,0.6,0.8c0,0.1,0.1,0.1,0.1,0.2
					c0.2,0.3,0.4,0.6,0.6,0.9c0,0,0.1,0.1,0.1,0.1c0.2,0.3,0.4,0.6,0.6,0.8c0,0,0.1,0.1,0.1,0.1c0.2,0.2,0.4,0.5,0.5,0.7
					c0,0,0,0,0,0c0,0,0.1,0.1,0.1,0.1c11.8,0.1,23.6-2.5,34.4-8c0,0,0,0,0,0C42.3,36.9,35,37.7,27.8,37.5z"/>
				<path id="XMLID_7094_" class="st45" d="M16,43.1c-0.3,0-0.6,0-0.9,0l-0.1,0l0,0c0,0,0,0-0.1-0.1c0,0,0,0,0,0l0-0.1
					c-0.2-0.2-0.4-0.5-0.5-0.7l-0.1-0.1c0,0,0,0-0.1-0.1c-0.2-0.3-0.4-0.5-0.6-0.9l0-0.1c0,0,0,0-0.1-0.1c-0.2-0.3-0.4-0.5-0.6-0.9
					l0-0.1c0,0,0-0.1-0.1-0.1c-0.2-0.2-0.3-0.5-0.6-0.8l-0.1-0.1c0,0,0-0.1-0.1-0.1c-0.2-0.3-0.4-0.6-0.5-0.8l-0.1-0.1
					c0,0-0.1-0.1-0.1-0.1c-0.2-0.3-0.4-0.6-0.5-0.8c0,0,0-0.1-0.1-0.1c0,0-0.1-0.1-0.1-0.1c-0.2-0.3-0.3-0.5-0.5-0.8
					c0,0,0-0.1-0.1-0.1c0,0-0.1-0.1-0.1-0.1c-0.2-0.4-0.4-0.7-0.6-1.1l-0.1-0.2l0.2,0c1.8-0.2,3.5-0.5,5.3-0.9
					c1.6-0.3,3.2-0.7,4.7-1.1c1.5-0.4,2.9-0.8,4.3-1.3c4.3-1.4,8.4-3.3,12.4-5.5c1.1-0.6,2.1-1.2,3.2-1.9c2.1-1.3,4.2-2.8,6.2-4.4
					c-5.9-4.1-12.4-7.4-19.4-9.6l-0.2-0.1c-0.1,0-0.2-0.1-0.3-0.1c-2.4-0.8-4.8-1.4-7.3-1.9c-2.9-0.6-5.8-1-8.8-1.3
					C6.5,6.3,3.3,6.2,0.1,6.4L0,6.4l0-0.2l0.1-0.1c3.1-0.7,6.4-1.2,9.6-1.6C12.8,4.3,16,4.2,19,4.3c2.9,0.1,5.8,0.3,8.6,0.8
					c8.8,1.3,17.1,4.2,24.8,8.5c0.5,0.3,1,0.6,1.5,0.8l0.1,0.1L54,14.5c-1.7,2.4-3.6,4.8-5.5,7c-1.7,1.9-3.4,3.7-5.3,5.3
					c-0.1,0.1-0.2,0.2-0.3,0.2l-0.1,0.1c-4.5,4-9.4,7.5-14.6,10.3c7.2,0.2,14.3-0.7,21.2-2.6l0.3-0.1L49.5,35l0,0
					c-5.3,2.7-11,4.8-16.8,6.1C27.2,42.4,21.6,43.1,16,43.1z M15.1,42.8c5.9,0.1,11.8-0.6,17.5-1.9c5.5-1.3,10.8-3.2,15.9-5.7
					c-6.7,1.8-13.7,2.6-20.7,2.4l-0.4,0l0.4-0.2c5.4-2.8,10.4-6.3,15-10.4l0.1-0.1c0.1-0.1,0.2-0.2,0.3-0.2c1.8-1.7,3.6-3.5,5.3-5.3
					c1.9-2.2,3.8-4.5,5.4-6.9c-0.5-0.3-0.9-0.5-1.4-0.8c-7.7-4.3-16-7.1-24.8-8.4c-2.8-0.4-5.7-0.7-8.6-0.8c-3.1-0.1-6.2,0-9.3,0.3
					C6.9,5.1,4,5.5,1.2,6.1C4,6,6.9,6.1,9.7,6.3c3,0.2,5.9,0.7,8.8,1.3c2.5,0.5,4.9,1.2,7.3,1.9c0.1,0,0.2,0.1,0.3,0.1l0.2,0.1
					c7,2.3,13.6,5.5,19.6,9.7l0.1,0.1l-0.1,0.1c-2,1.6-4.2,3.1-6.4,4.5c-1,0.7-2.1,1.3-3.2,1.9c-4,2.2-8.1,4.1-12.4,5.5
					c-1.4,0.5-2.9,0.9-4.4,1.3c-1.6,0.4-3.2,0.8-4.7,1.1c-1.7,0.3-3.4,0.6-5.1,0.8c0.2,0.3,0.4,0.7,0.6,1c0,0,0.1,0.1,0.1,0.1
					c0,0,0,0.1,0.1,0.1c0.2,0.3,0.3,0.5,0.5,0.8c0,0,0.1,0.1,0.1,0.1c0,0,0,0.1,0.1,0.1c0.2,0.2,0.3,0.5,0.5,0.8
					c0,0,0.1,0.1,0.1,0.1c0,0,0,0.1,0.1,0.1c0.2,0.2,0.3,0.5,0.5,0.8c0,0,0,0.1,0.1,0.1c0,0,0,0.1,0.1,0.1c0.2,0.3,0.4,0.6,0.6,0.8
					c0,0,0,0.1,0.1,0.1l0,0.1c0.2,0.3,0.4,0.6,0.6,0.9c0,0,0,0,0.1,0.1l0,0.1c0.2,0.3,0.4,0.6,0.6,0.8c0,0,0,0,0.1,0.1l0.1,0.1
					c0.2,0.2,0.3,0.4,0.5,0.6L15.1,42.8C15,42.8,15.1,42.8,15.1,42.8C15.1,42.8,15.1,42.8,15.1,42.8z"/>
			</g>
		</g>
	</g>
	<g id="XMLID_6139_">
		<path id="XMLID_6155_" class="st45" d="M72.8,44c-0.7-0.3-1.6-0.7-2.7-1c-0.3-0.1-0.5-0.2-0.7-0.3c1.7-4.5,2.8-7.9,3.3-10.3
			l3.6,1.1C75.3,37.3,74.2,40.8,72.8,44z M69.5,19V15h15.6V9.1h4.1V15h15.4V19H89.2v5.7H102v3.9H72.3v-3.9h12.7V19H69.5z M83,47.1
			c-3.5,0.1-5.1-1.7-5-5.5v-9.8h3.9v8.8c-0.1,2,0.8,2.9,2.8,2.9h5.6c1.8,0,2.8-0.8,3.1-2.3c0-0.2,0-0.7,0.1-1.3
			c0.2-1.3,0.3-2.3,0.4-3.1c0.5,0.1,1.1,0.3,1.9,0.7c0.9,0.3,1.5,0.6,1.9,0.8c-0.4,2.3-0.8,4-1.2,5.2c-0.5,2.4-2.3,3.6-5.5,3.6H83z
			 M88.6,38.4c-0.1-0.2-0.3-0.5-0.6-0.8c-1.7-2.5-3-4.4-4-5.7l3.1-2.1c2,2.3,3.6,4.3,4.7,6L88.6,38.4z M101.7,43.2
			c-0.9-2-2.5-5.1-4.9-9.5l3.4-1.8c2,3.5,3.7,6.6,5,9.3L101.7,43.2z"/>
		<path id="XMLID_6149_" class="st45" d="M113.5,20v-3.4h6.5c0.7-2,1.5-4.4,2.5-7.3l3.3,1c-0.3,0.7-0.7,1.7-1.2,3.1
			c-0.6,1.4-1,2.5-1.3,3.3h3V20h-4.7v4.2h4.1v3.6h-4.1v1.6c0,1,0,1.9,0,2.8h4.6v2.4c1-0.7,2.4-1.7,4.1-3.1c1.3-1,2.2-1.7,2.8-2.1
			V15.3h-5.8v-3.9h9.2v31c0.1,3.3-1.3,4.9-4.3,5.1c-0.6,0.1-1.9,0.2-4,0.2c-0.1-0.3-0.2-0.8-0.3-1.5c-0.2-1.2-0.4-2.1-0.6-2.6
			c1.2,0,2.3,0,3.4,0c1.7,0.1,2.5-0.7,2.4-2.3V34c-2.2,1.7-4.3,3.5-6.4,5.4l-1.9-3.6h-3.6c-0.3,4.6-2,8.7-5.2,12.4
			c-0.3-0.2-0.8-0.6-1.5-1.1c-0.6-0.5-1.1-1-1.5-1.3c2.8-2.8,4.3-6.1,4.6-9.9h-4.3v-3.6h4.6c0-0.9,0-1.8,0-2.8v-1.6h-3.9v-3.6h3.9
			V20H113.5z M116.2,15.9c-0.3-1-0.8-2.4-1.6-4.2c-0.3-0.5-0.5-1-0.6-1.3l3-1.1c0.8,1.7,1.5,3.5,2.2,5.4L116.2,15.9z M129.4,28
			c-0.3-0.7-0.7-1.7-1.2-3.1c-0.8-2.2-1.4-3.8-1.8-4.9l2.8-1.3c0.7,1.4,1.5,3.5,2.5,6.4c0.2,0.7,0.3,1.1,0.4,1.3L129.4,28z
			 M138.7,38.4l-1.5-4.2c1.1-0.8,2.7-2,4.9-3.6c0.9-0.8,1.6-1.3,2.1-1.6V15.3h-6.2v-3.9h9.6v31c0.1,3.5-1.3,5.2-4.3,5.2
			c-1.6,0-3,0.1-4.1,0.2c-0.1-1.5-0.3-2.9-0.6-4.2c1.1,0,2.2,0,3.3,0c1.7,0.1,2.5-0.7,2.4-2.3v-7.5
			C142.4,35.2,140.6,36.8,138.7,38.4z M140.5,28.2c-0.9-2.7-1.8-5.4-2.8-8.1l2.8-1.5c0.5,1.3,1.2,3.3,2.2,5.9c0.3,0.9,0.5,1.5,0.7,2
			L140.5,28.2z"/>
		<path id="XMLID_6144_" class="st45" d="M158.4,15.8c-0.1-1.3-0.3-2.6-0.6-3.9c5.8-0.3,10.3-0.8,13.3-1.3l0.7,3.9
			c-1.7,0.3-3.4,0.5-5.2,0.7v5.7h4.9v4.1h-4.9v4.4l1-1.3c1.4,1.1,3,2.6,4.9,4.4l-2.5,2.9c-1.4-1.5-2.5-2.7-3.4-3.4V48h-3.9v-16
			c-1.2,3.4-2.7,6.5-4.4,9.3l-1.3-4.7c2.2-3.3,4-7.2,5.5-11.7h-5v-4.1h5.3v-5.4C161,15.7,159.6,15.8,158.4,15.8z M171.1,39.4
			l-0.3-4.2l13.2-1.3V9.3h4v24.3l4.9-0.5l0.1,4.1l-5,0.5V48h-4v-9.9L171.1,39.4z M178.5,31.6c-2.1-2.1-4.1-4-6.2-5.7l2.4-2.9
			c1.5,1.2,3.5,2.9,5.9,5.2c-0.1-0.1,0,0,0.4,0.3L178.5,31.6z M180.3,21.6c-2.4-2.4-4.5-4.3-6.4-5.9l2.4-2.9
			c2.7,2.2,4.9,4.1,6.7,5.9L180.3,21.6z"/>
		<path id="XMLID_6140_" class="st45" d="M201.5,20.5v-3.9h4.3V9.4h3.7v7.2h3.7v3.9h-3.7v7l3.9-1c0,1.5,0,2.9,0.1,4.2l-4,1V43
			c0.1,2.9-1.2,4.5-3.9,4.7c-0.4,0-0.9,0.1-1.6,0.2c-0.8,0-1.4,0-1.8,0c-0.2-1.5-0.4-2.9-0.7-4.2c0.5,0,1.4,0,2.7,0
			c1.2,0.1,1.7-0.5,1.6-1.8v-9l-4.4,1.1l-0.3-4.6c1.4-0.3,3-0.7,4.7-1v-8H201.5z M214.5,19v-3.9h8.6V9.3h3.9v5.9h9.5V19H227v5.5h7.9
			v3.9c-1.9,4.9-4.1,8.6-6.8,11.2c2.4,1.7,5.4,3.1,9,4.1c-0.8,1.5-1.4,2.9-1.9,4.1c-4.1-1.7-7.6-3.5-10.2-5.4
			c-3.2,2.2-6.9,4.1-11.1,5.7c-0.3-0.4-0.8-1.2-1.5-2.4c-0.4-0.7-0.6-1.1-0.7-1.3c4.2-1.3,7.7-2.9,10.4-4.9
			c-2.4-2.6-4.4-6.2-6.2-10.8l1.2-0.5h-2.1v-3.7h8.3V19H214.5z M230.7,28.3h-11.1c1.5,3.6,3.3,6.5,5.5,8.8
			C227.5,34.7,229.4,31.8,230.7,28.3z"/>
	</g>
</g>
</svg>
